<svg width="40" height="40" viewBox="0 0 40 40" fill="none" xmlns="http://www.w3.org/2000/svg">
<path d="M17.6151 0C7.90242 0 0 7.90242 0 17.6151C0 27.3284 7.90242 35.2303 17.6151 35.2303C27.3284 35.2303 35.2303 27.3284 35.2303 17.6151C35.2303 7.90242 27.3284 0 17.6151 0ZM17.6151 31.9783C9.69538 31.9783 3.25203 25.535 3.25203 17.6152C3.25203 9.69546 9.69538 3.25203 17.6151 3.25203C25.5349 3.25203 31.9783 9.69538 31.9783 17.6151C31.9783 25.5349 25.5349 31.9783 17.6151 31.9783Z" fill="white"/>
<path d="M39.5234 37.2244L30.2009 27.9019C29.5657 27.2666 28.537 27.2666 27.9017 27.9019C27.2665 28.5366 27.2665 29.5664 27.9017 30.2011L37.2242 39.5236C37.5418 39.8412 37.9576 40 38.3738 40C38.7895 40 39.2058 39.8412 39.5234 39.5236C40.1587 38.8889 40.1587 37.8591 39.5234 37.2244Z" fill="white"/>
</svg>
